<svg xmlns="http://www.w3.org/2000/svg" width="128" height="128" viewBox="0 0 128 128" role="img" aria-label="kernellib">
<title>kernellib</title>
<defs><linearGradient id="ic" x1="0" y1="0" x2="1" y2="1"><stop offset="0" stop-color="#14B8A6"/><stop offset="1" stop-color="#0284C7"/></linearGradient></defs><g transform="translate(0 0) scale(1)"><rect x="4" y="4" width="120" height="120" rx="26" fill="url(#ic)"/><defs><clipPath id="ic-clip"><rect x="24" y="24" width="80" height="80" rx="8"/></clipPath></defs><g clip-path="url(#ic-clip)"><rect x="24" y="24" width="80" height="80" fill="#FFFFFF" fill-opacity="0.1"/><path d="M24 24 L50 24 L104 78 L104 104 L78 104 L24 50 Z" fill="#FFFFFF" fill-opacity="0.22"/><path d="M24 24 L40 24 L104 88 L104 104 L88 104 L24 40 Z" fill="#FFFFFF" fill-opacity="0.45"/><path d="M24 24 L32 24 L104 96 L104 104 L96 104 L24 32 Z" fill="#FFFFFF" fill-opacity="0.95"/></g><rect x="24" y="24" width="80" height="80" rx="8" fill="none" stroke="#FFFFFF" stroke-opacity="0.6" stroke-width="2.5"/></g>
</svg>
